<?xml version="1.0" standalone="no"?>
<!DOCTYPE svg PUBLIC "-//W3C//DTD SVG 20010904//EN"
 "http://www.w3.org/TR/2001/REC-SVG-20010904/DTD/svg10.dtd">
<svg version="1.0" xmlns="http://www.w3.org/2000/svg"
 width="256.000000pt" height="256.000000pt" viewBox="0 0 256.000000 256.000000"
 preserveAspectRatio="xMidYMid meet">

<g transform="translate(0.000000,256.000000) scale(0.100000,-0.100000)"
fill="#000000" stroke="none">
<path d="M195 1968 c-3 -24 -32 -285 -65 -581 l-59 -539 65 -164 66 -164 234
0 234 0 0 68 c0 37 3 84 6 105 l7 37 161 -2 161 -3 9 -102 9 -103 467 0 468 0
40 167 c26 113 38 182 35 211 l-5 42 180 0 180 0 62 184 61 185 -16 143 c-19
168 -19 168 -44 168 -19 0 -19 1 -4 47 14 42 15 62 4 163 -6 63 -15 130 -18
148 l-5 32 -702 -2 -701 -3 -3 -92 -3 -93 -58 0 -58 0 -7 -52 c-3 -29 -6 -74
-6 -100 l0 -48 -44 0 c-51 0 -51 0 -61 100 -10 98 -11 100 -54 100 l-39 0 -11
75 c-6 42 -11 85 -11 95 0 19 -8 20 -234 20 l-235 0 -6 -42z m177 -46 c5 -13
188 -132 202 -132 2 0 6 29 8 65 4 62 11 85 24 72 3 -3 3 -48 -1 -98 -6 -72
-10 -90 -19 -78 -6 9 -54 44 -106 79 -127 84 -147 100 -127 100 8 0 17 -4 19
-8z m1062 -199 c3 -115 7 -352 8 -528 l3 -320 -194 -3 c-156 -2 -192 0 -184
10 6 7 13 105 16 220 4 166 3 209 -8 218 -7 6 -39 10 -72 8 l-58 -3 -5 -110
-5 -110 -129 -3 c-114 -2 -128 -1 -116 13 18 22 26 180 10 200 -9 10 -31 15
-71 15 -33 0 -59 -2 -59 -3 0 -41 -32 -442 -36 -448 -3 -5 -88 -9 -190 -9
-172 0 -185 1 -180 18 3 9 17 118 31 242 47 415 50 441 64 449 9 6 10 11 2 15
-11 7 -16 56 -6 56 2 0 34 -16 71 -36 36 -19 68 -33 72 -30 3 3 0 6 -7 6 -7 0
-10 4 -7 9 8 13 95 4 114 -11 13 -11 14 -11 3 7 -7 11 -58 54 -113 95 -54 41
-104 83 -109 92 -11 21 -11 59 0 76 7 11 12 10 27 -6 20 -20 137 -97 286 -188
82 -50 86 -51 92 -31 11 42 6 57 -25 76 l-32 20 45 -2 46 -2 -6 -97 -5 -98
122 0 121 0 0 -27 c0 -22 2 -25 10 -13 5 8 10 38 10 67 0 82 4 86 56 51 24
-16 50 -27 57 -25 7 3 4 6 -6 6 -10 1 -16 5 -12 10 8 14 132 6 149 -9 8 -6 22
-10 30 -8 9 2 -23 31 -79 72 -86 63 -93 71 -80 86 8 9 15 22 15 28 0 17 21 14
54 -7 38 -25 46 -19 46 30 l0 39 55 0 55 0 0 -45 0 -45 -46 0 c-28 0 -44 -4
-42 -11 2 -6 45 -33 96 -60 l92 -50 0 102 c0 83 -3 106 -17 123 -17 20 -17 20
0 7 16 -12 17 -10 17 28 l0 41 -45 0 c-37 0 -43 -3 -38 -16 5 -14 2 -14 -23 2
-16 10 -31 19 -33 21 -2 2 32 3 76 3 l80 0 7 -207z m669 -200 c-7 -2 -21 -2
-30 0 -10 3 -4 5 12 5 17 0 24 -2 18 -5z m-303 -78 c0 -12 14 -15 70 -15 56 0
70 3 70 15 0 12 19 15 115 15 96 0 115 -3 115 -15 0 -12 -13 -15 -60 -15 -64
0 -68 -4 -54 -58 6 -21 11 -23 68 -20 l61 3 -3 38 -3 37 121 0 c89 0 120 -3
120 -12 0 -7 3 -30 6 -50 l7 -38 -251 0 -251 0 5 -47 c5 -55 24 -357 24 -385
0 -17 -12 -18 -188 -18 l-189 0 -6 128 c-4 70 -7 193 -7 275 l0 147 60 0 c47
0 60 3 60 15 0 12 13 15 55 15 42 0 55 -3 55 -15z"/>
<path d="M426 1549 c3 -5 12 -9 20 -9 8 0 14 -4 14 -10 0 -5 4 -10 10 -10 19
0 -2 28 -25 33 -14 2 -22 0 -19 -4z"/>
<path d="M1106 1551 c5 -5 27 -11 49 -13 32 -2 40 -8 46 -28 l7 -25 1 27 c1
17 -6 31 -18 38 -25 13 -99 14 -85 1z"/>
</g>
</svg>
