<?xml version="1.0" standalone="no"?>
<!DOCTYPE svg PUBLIC "-//W3C//DTD SVG 20010904//EN"
 "http://www.w3.org/TR/2001/REC-SVG-20010904/DTD/svg10.dtd">
<svg version="1.0" xmlns="http://www.w3.org/2000/svg"
 width="150.000000pt" height="150.000000pt" viewBox="0 0 150.000000 150.000000"
 preserveAspectRatio="xMidYMid meet">

<g transform="translate(0.000000,150.000000) scale(0.100000,-0.100000)"
fill="#000000" stroke="none">
<path d="M126 1162 c-12 -20 -70 -544 -70 -637 -1 -57 37 -175 67 -212 7 -9
48 -13 143 -13 l134 0 0 41 c0 71 10 79 100 79 88 0 92 -2 100 -70 l5 -45 275
0 275 0 21 102 c30 145 19 133 123 133 91 0 121 11 121 44 0 8 13 52 28 99 27
80 28 89 18 163 -6 44 -14 84 -17 89 -3 6 -6 46 -7 90 -1 44 -5 94 -10 110
l-8 30 -406 3 -406 2 -9 -52 c-7 -48 -11 -53 -41 -62 -29 -8 -32 -13 -32 -47
0 -50 -8 -69 -30 -69 -20 0 -30 19 -30 58 0 32 -8 45 -35 60 -12 6 -23 28 -30
59 l-10 48 -132 3 c-72 1 -134 -1 -137 -6z m149 -68 c31 -21 52 -41 48 -48 -4
-8 -3 -8 6 0 7 6 13 27 14 47 3 52 17 34 17 -22 0 -46 2 -49 33 -58 31 -9 32
-11 29 -60 l-2 -50 66 -6 c37 -4 71 -4 75 -1 5 3 10 31 10 62 1 48 3 51 8 22
l6 -35 63 -3 63 -3 -36 33 c-27 25 -34 38 -29 55 5 18 11 22 30 17 17 -4 26
-1 30 10 13 33 85 9 77 -25 -3 -10 -15 -19 -27 -21 -18 -3 -14 -8 24 -30 44
-27 45 -27 48 -7 2 12 -2 26 -10 30 -10 7 -10 9 0 9 6 0 12 12 12 26 0 20 -4
25 -16 20 -8 -3 -12 -2 -9 4 3 6 -6 21 -22 35 -31 27 -16 34 22 9 24 -15 25
-15 25 2 1 17 2 17 10 3 7 -12 13 -377 10 -604 0 -19 -6 -20 -109 -17 l-108 3
5 114 c6 148 2 165 -43 165 l-35 0 0 -65 0 -65 -44 0 c-24 0 -58 -3 -76 -7
-32 -6 -33 -5 -26 22 4 15 4 47 0 71 -6 42 -8 44 -39 44 l-32 0 -6 -67 c-4
-38 -7 -89 -7 -115 0 -79 2 -78 -122 -78 -109 0 -110 0 -105 23 3 12 16 121
28 242 13 121 25 212 27 202 2 -11 9 -16 18 -13 8 3 12 2 9 -3 -8 -14 31 -23
67 -16 l32 7 -25 14 c-13 7 -33 11 -44 8 -15 -4 -16 -3 -6 4 10 8 7 15 -18 33
-25 19 -31 30 -31 61 0 38 0 38 19 19 35 -35 79 -53 101 -41 20 11 27 22 11
18 -12 -4 -91 44 -91 54 0 15 21 7 75 -28z m690 -23 c3 -5 1 -12 -5 -16 -5 -3
-10 1 -10 9 0 18 6 21 15 7z m435 -51 c0 -6 -52 -10 -135 -10 -88 0 -135 -4
-135 -11 0 -5 -5 -7 -11 -3 -8 4 -3 12 12 20 29 16 269 20 269 4z m-410 -30
l0 -29 73 -3 c66 -3 63 -4 -36 -8 -59 -3 -107 -2 -107 3 0 4 14 7 30 7 25 0
30 4 30 24 0 20 -6 25 -32 29 -32 4 -32 4 5 5 35 2 37 0 37 -28z m-27 -97 c-7
-2 -21 -2 -30 0 -10 3 -4 5 12 5 17 0 24 -2 18 -5z m220 0 c-38 -4 -43 -7 -43
-28 l0 -24 135 0 c75 0 140 -3 145 -6 6 -3 10 -22 10 -41 0 -21 -4 -33 -10
-29 -5 3 -11 -2 -11 -12 -1 -17 -2 -17 -6 0 -4 16 -17 17 -131 15 l-127 -3 3
-100 c2 -55 5 -112 8 -127 l6 -28 -116 0 c-114 0 -116 0 -116 23 -1 12 -3 88
-6 168 l-6 145 37 -4 c37 -4 38 -4 33 27 l-5 31 121 -2 c67 -1 102 -3 79 -5z
m231 -2 c3 -4 -6 -6 -19 -3 -14 2 -25 6 -25 8 0 8 39 4 44 -5z m-137 -23 c-3
-8 -6 -5 -6 6 -1 11 2 17 5 13 3 -3 4 -12 1 -19z m-718 -265 c-1 -17 -3 -21
-6 -10 -4 14 -17 17 -76 19 l-72 2 75 6 c41 4 76 7 78 8 1 1 1 -10 1 -25z
m554 -110 c-7 -2 -21 -2 -30 0 -10 3 -4 5 12 5 17 0 24 -2 18 -5z m-163 -7 c0
-3 -4 -8 -10 -11 -5 -3 -10 -1 -10 4 0 6 5 11 10 11 6 0 10 -2 10 -4z m87 -32
c-3 -3 -12 -4 -19 -1 -8 3 -5 6 6 6 11 1 17 -2 13 -5z m66 -81 c-7 -2 -19 -2
-25 0 -7 3 -2 5 12 5 14 0 19 -2 13 -5z"/>
<path d="M270 1031 c0 -12 40 -41 57 -41 7 0 22 -9 33 -20 23 -23 45 -27 37
-6 -3 7 0 19 6 25 9 9 8 11 -5 6 -10 -4 -18 -3 -18 2 0 12 -65 43 -90 43 -11
0 -20 -4 -20 -9z"/>
<path d="M1000 879 c0 -5 14 -9 30 -9 18 0 33 -6 36 -15 4 -9 19 -15 35 -15
24 0 29 4 29 24 0 24 -3 25 -65 25 -36 0 -65 -4 -65 -10z"/>
<path d="M1000 850 c0 -5 14 -10 30 -10 17 0 30 5 30 10 0 6 -13 10 -30 10
-16 0 -30 -4 -30 -10z"/>
<path d="M1214 814 c3 -9 6 -18 6 -20 0 -2 14 -4 30 -4 23 0 30 4 30 20 0 16
-7 20 -36 20 -29 0 -35 -3 -30 -16z"/>
</g>
</svg>
