<?xml version="1.0" standalone="no"?>
<!DOCTYPE svg PUBLIC "-//W3C//DTD SVG 20010904//EN"
 "http://www.w3.org/TR/2001/REC-SVG-20010904/DTD/svg10.dtd">
<svg version="1.0" xmlns="http://www.w3.org/2000/svg"
 width="828.000000pt" height="1024.000000pt" viewBox="0 0 828.000000 1024.000000"
 preserveAspectRatio="xMidYMid meet">

<g transform="translate(0.000000,1024.000000) scale(0.100000,-0.100000)"
fill="#000000" stroke="none">
<path d="M700 9338 c0 -24 -7 -230 -15 -458 -8 -228 -17 -494 -20 -590 -5
-147 -41 -1233 -60 -1782 -3 -87 -7 -229 -10 -315 -3 -87 -17 -484 -30 -883
-33 -989 -33 -997 -51 -1495 l-15 -440 111 -965 c60 -530 110 -970 110 -977 0
-11 234 -13 1238 -13 l1239 0 6 202 c4 112 7 357 7 546 l0 342 918 0 919 0 6
-287 c4 -157 7 -403 7 -545 l0 -258 1240 0 1239 0 5 32 c3 18 54 452 112 963
l106 930 -11 400 c-7 220 -14 441 -16 490 -3 50 -7 173 -10 275 -7 235 -57
1726 -70 2110 -3 80 -17 478 -30 885 -26 782 -32 977 -40 1195 -3 74 -7 221
-10 325 -3 105 -8 227 -11 273 l-6 82 -1243 0 -1243 0 -6 -87 c-3 -49 -8 -234
-12 -413 -3 -179 -7 -354 -9 -390 -3 -36 -5 -84 -5 -107 l0 -43 -295 0 c-229
0 -295 -3 -296 -12 -1 -7 -5 -247 -8 -533 l-6 -520 -302 0 -303 0 -4 135 c-2
74 -5 314 -5 533 l-1 397 -298 0 -299 0 -6 260 c-4 143 -10 377 -14 520 l-6
260 -1249 0 -1248 0 0 -42z m2184 -645 c-2 -137 -6 -371 -8 -520 l-4 -273 315
0 315 0 -3 -532 -4 -533 1902 0 1903 0 4 -40 c3 -22 8 -161 11 -310 3 -148 8
-317 10 -375 3 -58 9 -301 15 -540 5 -239 12 -462 14 -495 3 -39 1 -51 -4 -35
-4 14 -8 53 -9 88 -1 34 -5 62 -11 62 -5 0 -10 9 -10 20 0 15 -7 20 -25 20
-18 0 -25 -5 -25 -20 0 -11 -7 -20 -15 -20 -8 0 -15 9 -15 20 0 15 -7 20 -25
20 -18 0 -25 -5 -25 -20 0 -11 -6 -20 -14 -20 -8 0 -18 9 -21 20 -8 26 -35 26
-35 0 0 -13 -7 -20 -20 -20 -13 0 -20 7 -20 20 0 15 -7 20 -25 20 -18 0 -25
-5 -25 -20 0 -13 -7 -20 -20 -20 -13 0 -20 7 -20 20 0 11 -7 20 -15 20 -8 0
-15 -9 -15 -20 0 -15 -7 -20 -25 -20 -18 0 -25 5 -25 20 0 13 -7 20 -20 20
-13 0 -20 -7 -20 -20 0 -11 -6 -20 -14 -20 -8 0 -18 9 -21 20 -8 27 -45 27
-45 0 0 -13 -7 -20 -20 -20 -13 0 -20 7 -20 20 0 13 -7 20 -20 20 -13 0 -20
-7 -20 -20 0 -13 -7 -20 -20 -20 -13 0 -20 7 -20 20 0 13 -7 20 -20 20 -13 0
-20 -7 -20 -20 0 -13 -7 -20 -20 -20 -13 0 -20 7 -20 20 0 13 -7 20 -20 20
-13 0 -20 -7 -20 -20 0 -13 -7 -20 -20 -20 -13 0 -20 7 -20 20 0 13 -7 20 -20
20 -13 0 -20 -7 -20 -20 0 -13 -7 -20 -20 -20 -13 0 -20 7 -20 20 0 13 -7 20
-20 20 -13 0 -20 -7 -20 -20 0 -13 -7 -20 -20 -20 -13 0 -20 7 -20 20 0 13 -7
20 -20 20 -13 0 -20 -7 -20 -20 0 -13 -7 -20 -20 -20 -13 0 -20 7 -20 20 0 13
-7 20 -20 20 -13 0 -20 -7 -20 -20 0 -13 -7 -20 -20 -20 -13 0 -20 7 -20 20 0
13 -7 20 -20 20 -13 0 -20 -7 -20 -20 0 -13 -7 -20 -20 -20 -13 0 -20 7 -20
20 0 13 -7 20 -20 20 -13 0 -20 -7 -20 -20 0 -13 -7 -20 -20 -20 -13 0 -20 7
-20 20 0 15 -7 20 -25 20 -18 0 -25 -5 -25 -20 0 -11 -7 -20 -15 -20 -8 0 -15
9 -15 20 0 15 -7 20 -25 20 -18 0 -25 -5 -25 -20 0 -12 -7 -20 -16 -20 -9 0
-18 9 -21 20 -3 11 -12 20 -19 20 -8 0 -14 -9 -14 -20 0 -13 -7 -20 -20 -20
-13 0 -20 7 -20 20 0 15 -7 20 -25 20 -18 0 -25 -5 -25 -20 0 -11 -7 -20 -15
-20 -8 0 -15 9 -15 20 0 15 -7 20 -25 20 -18 0 -25 -5 -25 -20 0 -13 -7 -20
-20 -20 -13 0 -20 7 -20 20 0 13 -7 20 -20 20 -13 0 -20 -7 -20 -20 0 -13 -7
-20 -20 -20 -13 0 -20 7 -20 20 0 13 -7 20 -20 20 -13 0 -20 -7 -20 -20 0 -13
-7 -20 -20 -20 -13 0 -20 7 -20 20 0 11 -4 20 -10 20 -6 0 -11 -75 -12 -202
-2 -185 -9 100 -17 625 l-1 97 -325 0 -325 0 -2 -502 c-2 -277 -4 -403 -5
-280 -2 136 -7 222 -13 222 -6 0 -10 9 -10 20 0 13 -7 20 -20 20 -13 0 -20 -7
-20 -20 0 -13 -7 -20 -20 -20 -13 0 -20 7 -20 20 0 15 -7 20 -25 20 -18 0 -25
-5 -25 -20 0 -13 -7 -20 -20 -20 -13 0 -20 7 -20 20 0 11 -7 20 -15 20 -8 0
-15 -9 -15 -20 0 -13 -7 -20 -20 -20 -13 0 -20 7 -20 20 0 15 -7 20 -25 20
-18 0 -25 -5 -25 -20 0 -11 -7 -20 -15 -20 -8 0 -15 9 -15 20 0 15 -7 20 -25
20 -18 0 -25 -5 -25 -20 0 -13 -7 -20 -20 -20 -13 0 -20 7 -20 20 0 13 -7 20
-20 20 -13 0 -20 -7 -20 -20 0 -13 -7 -20 -20 -20 -13 0 -20 7 -20 20 0 13 -7
20 -20 20 -13 0 -20 -7 -20 -20 0 -13 -7 -20 -20 -20 -13 0 -20 7 -20 20 0 13
-7 20 -20 20 -13 0 -20 -7 -20 -20 0 -13 -7 -20 -20 -20 -13 0 -20 7 -20 20 0
13 -7 20 -20 20 -13 0 -20 -7 -20 -20 0 -13 -7 -20 -20 -20 -13 0 -20 7 -20
20 0 13 -7 20 -20 20 -13 0 -20 -7 -20 -20 0 -13 -7 -20 -20 -20 -13 0 -20 7
-20 20 0 13 -7 20 -20 20 -13 0 -20 -7 -20 -20 0 -13 -7 -20 -20 -20 -13 0
-20 7 -20 20 0 13 -7 20 -20 20 -13 0 -20 -7 -20 -20 0 -13 -7 -20 -20 -20
-13 0 -20 7 -20 20 0 13 -7 20 -20 20 -13 0 -20 -7 -20 -20 0 -13 -7 -20 -20
-20 -13 0 -20 7 -20 20 0 13 -7 20 -20 20 -13 0 -20 -7 -20 -20 0 -13 -7 -20
-20 -20 -13 0 -20 7 -20 20 0 14 -7 20 -21 20 -12 0 -23 -8 -26 -20 -3 -11
-12 -20 -19 -20 -8 0 -14 9 -14 20 0 16 -15 28 -21 18 -1 -2 -5 -136 -9 -298
-6 -263 -7 -235 -7 260 l-1 555 -324 0 -323 0 -6 -340 c-3 -187 -7 -436 -8
-552 -1 -196 -2 -213 -18 -212 -11 0 -13 3 -5 6 15 6 18 543 2 543 -5 0 -10 9
-10 20 0 13 -7 20 -20 20 -13 0 -20 -7 -20 -20 0 -13 -7 -20 -20 -20 -13 0
-20 7 -20 20 0 13 -7 20 -20 20 -13 0 -20 -7 -20 -20 0 -13 -7 -20 -20 -20
-13 0 -20 7 -20 20 0 13 -7 20 -20 20 -13 0 -20 -7 -20 -20 0 -13 -7 -20 -20
-20 -13 0 -20 7 -20 20 0 13 -7 20 -20 20 -13 0 -20 -7 -20 -20 0 -13 -7 -20
-20 -20 -13 0 -20 7 -20 20 0 13 -7 20 -20 20 -13 0 -20 -7 -20 -20 0 -13 -7
-20 -20 -20 -13 0 -20 7 -20 20 0 13 -7 20 -20 20 -13 0 -20 -7 -20 -20 0 -13
-7 -20 -20 -20 -13 0 -20 7 -20 20 0 13 -7 20 -20 20 -13 0 -20 -7 -20 -20 0
-13 -7 -20 -20 -20 -13 0 -20 7 -20 20 0 13 -7 20 -20 20 -13 0 -20 -7 -20
-20 0 -13 -7 -20 -20 -20 -13 0 -20 7 -20 20 0 13 -7 20 -20 20 -13 0 -20 -7
-20 -20 0 -13 -7 -20 -20 -20 -13 0 -20 7 -20 20 0 15 -7 20 -25 20 -18 0 -25
-5 -25 -20 0 -11 -7 -20 -15 -20 -8 0 -15 9 -15 20 0 15 -7 20 -25 20 -18 0
-25 -5 -25 -20 0 -14 -7 -20 -21 -20 -16 0 -19 4 -14 20 5 16 2 20 -14 20 -14
0 -21 -6 -21 -20 0 -13 -7 -20 -20 -20 -13 0 -20 7 -20 20 0 15 -7 20 -25 20
-18 0 -25 -5 -25 -20 0 -13 -7 -20 -20 -20 -13 0 -20 7 -20 20 0 13 -7 20 -20
20 -22 0 -26 -10 -10 -26 7 -7 9 -47 7 -100 l-3 -89 -2 93 -2 92 -405 0 -404
0 4 98 c3 53 10 275 15 492 6 217 15 539 20 715 5 176 12 410 15 520 3 110 10
333 16 495 5 162 11 392 14 510 3 118 10 348 15 510 6 162 10 319 10 348 l0
52 934 0 934 0 -4 -247z m4360 155 c3 -51 8 -187 11 -303 3 -115 8 -286 10
-380 21 -693 26 -851 31 -1015 l6 -185 -555 3 -555 2 -7 268 -7 268 -52 -2
c-81 -5 -84 -2 -89 69 -3 34 -4 -88 -3 -271 l1 -332 -633 -3 -632 -2 0 265 c0
146 -3 356 -7 468 l-6 202 317 0 318 0 -8 520 -7 520 931 0 930 0 6 -92z
m-6327 -3880 c-2 -18 -4 -6 -4 27 0 33 2 48 4 33 2 -15 2 -42 0 -60z m620 -70
c-2 -29 -3 -6 -3 52 0 58 1 81 3 53 2 -29 2 -77 0 -105z m5820 -40 c-2 -29 -3
-6 -3 52 0 58 1 81 3 53 2 -29 2 -77 0 -105z m-5640 -61 c-2 -23 -3 -1 -3 48
0 50 1 68 3 42 2 -26 2 -67 0 -90z m-810 -69 c-2 -29 -3 -8 -3 47 0 55 1 79 3
53 2 -26 2 -71 0 -100z m866 -85 c-7 -2 -19 -2 -25 0 -7 3 -2 5 12 5 14 0 19
-2 13 -5z m80 0 c-7 -2 -19 -2 -25 0 -7 3 -2 5 12 5 14 0 19 -2 13 -5z m80 0
c-7 -2 -19 -2 -25 0 -7 3 -2 5 12 5 14 0 19 -2 13 -5z m80 0 c-7 -2 -19 -2
-25 0 -7 3 -2 5 12 5 14 0 19 -2 13 -5z m84 1 c-3 -3 -12 -4 -19 -1 -8 3 -5 6
6 6 11 1 17 -2 13 -5z m86 -1 c-7 -2 -19 -2 -25 0 -7 3 -2 5 12 5 14 0 19 -2
13 -5z m80 0 c-7 -2 -19 -2 -25 0 -7 3 -2 5 12 5 14 0 19 -2 13 -5z m80 0 c-7
-2 -19 -2 -25 0 -7 3 -2 5 12 5 14 0 19 -2 13 -5z m80 0 c-7 -2 -19 -2 -25 0
-7 3 -2 5 12 5 14 0 19 -2 13 -5z m80 0 c-7 -2 -19 -2 -25 0 -7 3 -2 5 12 5
14 0 19 -2 13 -5z m80 0 c-7 -2 -19 -2 -25 0 -7 3 -2 5 12 5 14 0 19 -2 13 -5z
m80 0 c-7 -2 -19 -2 -25 0 -7 3 -2 5 12 5 14 0 19 -2 13 -5z m80 0 c-7 -2 -19
-2 -25 0 -7 3 -2 5 12 5 14 0 19 -2 13 -5z m4624 -75 c-2 -13 -4 -5 -4 17 -1
22 1 32 4 23 2 -10 2 -28 0 -40z"/>
<path d="M930 5220 c0 -5 5 -10 10 -10 6 0 10 5 10 10 0 6 -4 10 -10 10 -5 0
-10 -4 -10 -10z"/>
<path d="M990 5220 c0 -5 9 -10 20 -10 11 0 20 5 20 10 0 6 -9 10 -20 10 -11
0 -20 -4 -20 -10z"/>
<path d="M1070 5220 c0 -5 9 -10 20 -10 11 0 20 5 20 10 0 6 -9 10 -20 10 -11
0 -20 -4 -20 -10z"/>
<path d="M1150 5220 c0 -5 9 -10 20 -10 11 0 20 5 20 10 0 6 -9 10 -20 10 -11
0 -20 -4 -20 -10z"/>
<path d="M1230 5220 c0 -5 9 -10 20 -10 11 0 20 5 20 10 0 6 -9 10 -20 10 -11
0 -20 -4 -20 -10z"/>
<path d="M1310 5220 c0 -5 9 -10 20 -10 11 0 20 5 20 10 0 6 -9 10 -20 10 -11
0 -20 -4 -20 -10z"/>
<path d="M1390 5220 c0 -5 9 -10 20 -10 11 0 20 5 20 10 0 6 -9 10 -20 10 -11
0 -20 -4 -20 -10z"/>
<path d="M1470 5220 c0 -5 9 -10 20 -10 11 0 20 5 20 10 0 6 -9 10 -20 10 -11
0 -20 -4 -20 -10z"/>
<path d="M1550 5220 c0 -5 11 -10 25 -10 14 0 25 5 25 10 0 6 -11 10 -25 10
-14 0 -25 -4 -25 -10z"/>
<path d="M1630 5220 c0 -5 9 -10 20 -10 11 0 20 5 20 10 0 6 -9 10 -20 10 -11
0 -20 -4 -20 -10z"/>
</g>
</svg>
